<svg width="30" height="31" viewBox="0 0 30 31" fill="none" xmlns="http://www.w3.org/2000/svg">
<path d="M29.3151 14.5716V14.5733V28.2476C29.3034 28.4972 29.2433 28.7421 29.1382 28.9683C29.0318 29.1974 28.8813 29.4028 28.6957 29.5727C28.5101 29.7425 28.2931 29.8734 28.0573 29.958C27.8215 30.0426 27.5714 30.0792 27.3216 30.0658L27.3082 30.0651H27.2948H20.9976V23.9121L22.8384 22.6761L23.0596 22.5275V22.261V15.419V14.919H22.5596H19.734H19.234V15.419V16.6106H17.255V15.419V14.919H16.755H13.5478H13.0478V15.419V16.6106H11.0693V15.419V14.919H10.5693H7.74348H7.24348V15.419V22.2618V22.5283L7.46474 22.6769L9.30549 23.913V30.0653H2.9319H2.91902L2.90616 30.0659C2.65631 30.0788 2.40635 30.0418 2.17064 29.957C1.93491 29.8721 1.71798 29.7411 1.53241 29.5713C1.34683 29.4014 1.19628 29.1961 1.08959 28.9671C0.984339 28.7412 0.923866 28.4966 0.911621 28.2472V14.5782C0.916568 14.342 0.971292 14.1097 1.07207 13.8967C1.17346 13.6824 1.31906 13.4926 1.4989 13.34L1.50764 13.3326L1.51604 13.3248L13.6538 2.02795C14.0699 1.66456 14.6017 1.46484 15.1516 1.46484C15.7015 1.46484 16.2333 1.66455 16.6494 2.02794L28.785 13.3227C28.9526 13.4829 29.0861 13.676 29.1774 13.8903C29.269 14.1054 29.3159 14.3373 29.3151 14.5716Z" fill="#FB923C" stroke="#FB923C"/>
</svg>
