<svg width="150" height="50" viewBox="0 0 150 50" fill="none" xmlns="http://www.w3.org/2000/svg">
<g id="Group 26796">
<g id="Lopht">
<mask id="path-1-outside-1_34_6841" maskUnits="userSpaceOnUse" x="0" y="0.375488" width="150" height="50" fill="black">
<rect fill="white" y="0.375488" width="150" height="50"/>
<path d="M6.84199 40.6115C5.9999 40.6115 5.11834 40.401 4.1973 39.98C3.30259 39.5852 2.53944 38.9274 1.90788 38.0063C1.30263 37.059 1 35.809 1 34.2564C1 32.4406 1.15789 30.5196 1.47367 28.4934C1.78946 26.4671 2.19734 24.4408 2.69733 22.4145C3.22364 20.3619 3.80257 18.4146 4.43414 16.5725C5.06571 14.7305 5.69727 13.0858 6.32884 11.6384C6.98672 10.1911 7.59197 9.05954 8.14459 8.24377C8.69721 7.40168 9.15773 6.98064 9.52614 6.98064C10.0261 6.98064 10.4472 7.178 10.7893 7.57273C11.1577 7.96746 11.3419 8.52008 11.3419 9.23059C11.3419 9.52006 11.1708 10.2043 10.8287 11.2832C10.4866 12.3358 10.0524 13.6647 9.52614 15.2699C8.99984 16.8752 8.43406 18.612 7.82881 20.4804C7.24987 22.3487 6.69725 24.2303 6.17095 26.125C5.64464 28.0197 5.21044 29.8091 4.86834 31.4933C4.52624 33.1775 4.3552 34.6117 4.3552 35.7958C4.3552 36.1379 4.4473 36.4669 4.63151 36.7827C4.81571 37.0721 5.11834 37.2169 5.53938 37.2169C6.11832 37.2169 6.94725 37.0853 8.02617 36.8221C9.13141 36.559 10.3288 36.2432 11.6182 35.8748C12.9077 35.4801 14.1445 35.0985 15.3287 34.7301C16.5128 34.3617 17.5128 34.0459 18.3286 33.7827C19.1444 33.5196 19.6049 33.388 19.7101 33.388C20.0259 33.388 20.2891 33.4801 20.4996 33.6643C20.7101 33.8222 20.8154 34.0722 20.8154 34.4143C20.8154 34.8353 20.4996 35.3222 19.868 35.8748C19.2628 36.4274 18.447 36.98 17.4207 37.5326C16.4207 38.0853 15.3023 38.5853 14.0655 39.0326C12.8287 39.5063 11.5787 39.8879 10.3156 40.1773C9.07878 40.4668 7.92091 40.6115 6.84199 40.6115Z"/>
<path d="M66.6358 48.6245C66.1885 48.6245 65.8332 48.4666 65.5701 48.1509C65.3332 47.8351 65.2148 47.2298 65.2148 46.3351C65.2148 45.0457 65.3069 43.5457 65.4911 41.8352C65.6753 40.1247 65.9253 38.309 66.2411 36.3879C66.5832 34.4669 66.9516 32.5459 67.3463 30.6249C67.7674 28.7039 68.2016 26.875 68.6489 25.1382C69.1226 23.4014 69.5831 21.8619 70.0305 20.5198C70.4778 19.1514 70.8857 18.0725 71.2541 17.2831C71.6489 16.4936 71.991 16.0989 72.2804 16.0989C72.7804 16.0989 73.1752 16.2436 73.4646 16.5331C73.7804 16.8225 73.9383 17.2567 73.9383 17.8357C73.9383 18.5725 73.7146 19.7698 73.2673 21.4277C72.8199 23.0593 72.241 25.1908 71.5305 27.8223C72.1883 26.6118 72.8989 25.3487 73.662 24.0329C74.4251 22.7172 75.2278 21.4409 76.0698 20.204C76.9119 18.9409 77.754 17.8094 78.5961 16.8094C79.4645 15.8094 80.3066 15.0068 81.1224 14.4015C81.9381 13.7963 82.7276 13.4937 83.4907 13.4937C84.3065 13.4937 85.0302 13.7568 85.6618 14.2831C86.2933 14.7831 86.7802 15.4673 87.1223 16.3357C87.4907 17.1778 87.6749 18.1251 87.6749 19.1778C87.6749 21.3619 87.3064 23.4803 86.5696 25.5329C85.8328 27.5592 84.8065 29.3881 83.4907 31.0196C82.2013 32.6248 80.675 33.9012 78.9119 34.8485C77.1751 35.7959 75.2935 36.2695 73.2673 36.2695C72.5041 36.2695 71.8199 36.2301 71.2147 36.1511C70.6094 36.0722 70.0831 35.9801 69.6358 35.8748C69.32 37.6116 69.0173 39.401 68.7279 41.2431C68.4384 43.0852 68.1489 45.0457 67.8595 47.1246C67.7805 47.6772 67.649 48.0588 67.4648 48.2693C67.2805 48.5061 67.0042 48.6245 66.6358 48.6245ZM84.2013 16.4936C83.6486 16.4936 82.9908 16.8094 82.2276 17.4409C81.4908 18.0725 80.6882 18.9146 79.8198 19.9672C78.9777 20.9935 78.1224 22.1382 77.254 23.4014C76.3856 24.6382 75.5435 25.9013 74.7278 27.1907C73.912 28.4802 73.162 29.6775 72.4778 30.7828C71.8199 31.888 71.2805 32.8091 70.8594 33.5459C72.912 33.4933 74.7146 33.0854 76.2672 32.3222C77.8198 31.5328 79.1487 30.5328 80.254 29.3223C81.3592 28.0855 82.2539 26.7565 82.9381 25.3355C83.6486 23.8882 84.1618 22.4935 84.4776 21.1514C84.7934 19.783 84.9512 18.5988 84.9512 17.5988C84.9512 16.862 84.7012 16.4936 84.2013 16.4936Z"/>
<path d="M93.399 38.6774C92.8201 38.6774 92.3727 38.5063 92.057 38.1642C91.7412 37.8484 91.5833 37.0458 91.5833 35.7564C91.5833 34.5722 91.7938 33.0327 92.2149 31.138C92.6359 29.217 93.2017 27.0855 93.9122 24.7434C94.6227 22.4014 95.4253 19.9804 96.32 17.4804C97.2148 14.9542 98.149 12.4805 99.1226 10.0595C100.123 7.61221 101.083 5.37541 102.004 3.34913C102.346 2.61231 102.701 2.09916 103.07 1.80969C103.438 1.52022 103.873 1.37549 104.373 1.37549C104.715 1.37549 105.004 1.48075 105.241 1.69127C105.504 1.87548 105.636 2.19126 105.636 2.63862C105.636 2.79651 105.465 3.30966 105.122 4.17806C104.807 5.04647 104.359 6.19118 103.78 7.61221C103.228 9.03323 102.609 10.6253 101.925 12.3884C101.241 14.1515 100.544 16.0068 99.8331 17.9541C99.1226 19.9014 98.4516 21.8619 97.82 23.8356C97.1885 25.7829 96.649 27.6513 96.2016 29.4407C95.7543 31.2301 95.4516 32.8354 95.2938 34.2564C95.9253 33.4933 96.649 32.5196 97.4648 31.3354C98.2805 30.1512 99.1489 28.8749 100.07 27.5065C100.991 26.1381 101.925 24.7829 102.873 23.4408C103.82 22.0987 104.754 20.8751 105.675 19.7698C106.596 18.6646 107.451 17.783 108.241 17.1252C109.057 16.441 109.767 16.0989 110.372 16.0989C111.372 16.0989 112.175 16.4147 112.78 17.0462C113.412 17.6515 113.728 18.6514 113.728 20.0462C113.728 20.8356 113.57 21.783 113.254 22.8882C112.964 23.9934 112.622 25.1513 112.228 26.3618C111.833 27.5723 111.478 28.7302 111.162 29.8354C110.872 30.9407 110.728 31.888 110.728 32.6775C110.728 33.7564 111.136 34.2959 111.951 34.2959C113.214 34.2959 114.478 34.0196 115.741 33.4669C117.03 32.9143 118.254 32.2301 119.412 31.4143C120.57 30.5723 121.635 29.7302 122.609 28.8881C123.583 28.0197 124.412 27.2829 125.096 26.6776C125.833 26.0197 126.451 25.6908 126.951 25.6908C127.583 25.6908 127.898 26.0197 127.898 26.6776C127.898 26.8618 127.859 27.0723 127.78 27.3092C127.701 27.546 127.49 27.8486 127.148 28.217C126.727 28.6907 126.122 29.3091 125.333 30.0723C124.569 30.8354 123.675 31.6512 122.648 32.5196C121.648 33.388 120.556 34.2038 119.372 34.9669C118.214 35.7301 117.017 36.3616 115.78 36.8616C114.57 37.3353 113.385 37.5721 112.228 37.5721C110.649 37.5721 109.425 37.1248 108.557 36.2301C107.715 35.309 107.294 34.0459 107.294 32.4406C107.294 31.4407 107.451 30.2302 107.767 28.8091C108.083 27.3881 108.478 25.8881 108.951 24.3092C109.451 22.704 109.951 21.1382 110.451 19.612C109.609 20.1909 108.688 21.0593 107.688 22.2172C106.715 23.3487 105.688 24.6382 104.609 26.0855C103.53 27.5065 102.451 28.9539 101.373 30.4275C100.32 31.9012 99.2937 33.2696 98.2937 34.5327C97.32 35.7695 96.4121 36.7695 95.5701 37.5327C94.728 38.2958 94.0043 38.6774 93.399 38.6774Z"/>
<path d="M122.514 24.2698C121.803 24.2171 121.474 23.7566 121.527 22.8882C121.553 22.6777 121.698 22.4277 121.961 22.1382C122.224 21.8224 122.527 21.6514 122.869 21.6251C123.685 21.5461 124.685 21.4277 125.869 21.2698C127.079 21.0856 128.408 20.8751 129.856 20.6382C130.119 19.3488 130.435 17.9936 130.803 16.5725C131.171 15.1515 131.579 13.77 132.027 12.4279C132.474 11.0595 132.948 9.82269 133.448 8.71745C133.948 7.61221 134.474 6.7438 135.027 6.11224C135.316 5.82277 135.579 5.62541 135.816 5.52014C136.053 5.38857 136.263 5.32278 136.448 5.32278C136.816 5.32278 137.105 5.48067 137.316 5.79645C137.553 6.11224 137.671 6.46749 137.671 6.86222C137.671 7.07274 137.632 7.28327 137.553 7.49379C137.027 8.96744 136.461 10.7832 135.856 12.941C135.25 15.0989 134.606 17.4541 133.921 20.0067C136.342 19.612 138.763 19.1909 141.184 18.7436C143.605 18.2962 145.684 17.8883 147.421 17.5199C147.921 17.3094 148.303 17.3488 148.566 17.6383C148.855 17.9278 149 18.2172 149 18.5067C149 18.8751 148.895 19.1514 148.684 19.3356C148.5 19.5199 148.303 19.6777 148.092 19.8093L148.053 19.8488C147.526 20.0593 146.737 20.3093 145.684 20.5988C144.632 20.8619 143.421 21.1514 142.053 21.4672C140.684 21.7566 139.224 22.0461 137.671 22.3356C136.145 22.6251 134.632 22.8882 133.132 23.125C132.527 25.4408 131.908 27.8223 131.277 30.2696C130.671 32.6906 130.066 35.0722 129.461 37.4142C129.198 38.3616 128.895 38.9537 128.553 39.1905C128.237 39.4537 127.895 39.5852 127.527 39.5852C127.106 39.5852 126.737 39.4274 126.422 39.1116C126.132 38.7958 126.093 38.1511 126.303 37.1774L129.185 23.7171C127.606 23.954 126.211 24.125 125 24.2303C123.816 24.3355 122.987 24.3487 122.514 24.2698Z"/>
</mask>
<path d="M6.84199 40.6115C5.9999 40.6115 5.11834 40.401 4.1973 39.98C3.30259 39.5852 2.53944 38.9274 1.90788 38.0063C1.30263 37.059 1 35.809 1 34.2564C1 32.4406 1.15789 30.5196 1.47367 28.4934C1.78946 26.4671 2.19734 24.4408 2.69733 22.4145C3.22364 20.3619 3.80257 18.4146 4.43414 16.5725C5.06571 14.7305 5.69727 13.0858 6.32884 11.6384C6.98672 10.1911 7.59197 9.05954 8.14459 8.24377C8.69721 7.40168 9.15773 6.98064 9.52614 6.98064C10.0261 6.98064 10.4472 7.178 10.7893 7.57273C11.1577 7.96746 11.3419 8.52008 11.3419 9.23059C11.3419 9.52006 11.1708 10.2043 10.8287 11.2832C10.4866 12.3358 10.0524 13.6647 9.52614 15.2699C8.99984 16.8752 8.43406 18.612 7.82881 20.4804C7.24987 22.3487 6.69725 24.2303 6.17095 26.125C5.64464 28.0197 5.21044 29.8091 4.86834 31.4933C4.52624 33.1775 4.3552 34.6117 4.3552 35.7958C4.3552 36.1379 4.4473 36.4669 4.63151 36.7827C4.81571 37.0721 5.11834 37.2169 5.53938 37.2169C6.11832 37.2169 6.94725 37.0853 8.02617 36.8221C9.13141 36.559 10.3288 36.2432 11.6182 35.8748C12.9077 35.4801 14.1445 35.0985 15.3287 34.7301C16.5128 34.3617 17.5128 34.0459 18.3286 33.7827C19.1444 33.5196 19.6049 33.388 19.7101 33.388C20.0259 33.388 20.2891 33.4801 20.4996 33.6643C20.7101 33.8222 20.8154 34.0722 20.8154 34.4143C20.8154 34.8353 20.4996 35.3222 19.868 35.8748C19.2628 36.4274 18.447 36.98 17.4207 37.5326C16.4207 38.0853 15.3023 38.5853 14.0655 39.0326C12.8287 39.5063 11.5787 39.8879 10.3156 40.1773C9.07878 40.4668 7.92091 40.6115 6.84199 40.6115Z" fill="#FB923C"/>
<path d="M66.6358 48.6245C66.1885 48.6245 65.8332 48.4666 65.5701 48.1509C65.3332 47.8351 65.2148 47.2298 65.2148 46.3351C65.2148 45.0457 65.3069 43.5457 65.4911 41.8352C65.6753 40.1247 65.9253 38.309 66.2411 36.3879C66.5832 34.4669 66.9516 32.5459 67.3463 30.6249C67.7674 28.7039 68.2016 26.875 68.6489 25.1382C69.1226 23.4014 69.5831 21.8619 70.0305 20.5198C70.4778 19.1514 70.8857 18.0725 71.2541 17.2831C71.6489 16.4936 71.991 16.0989 72.2804 16.0989C72.7804 16.0989 73.1752 16.2436 73.4646 16.5331C73.7804 16.8225 73.9383 17.2567 73.9383 17.8357C73.9383 18.5725 73.7146 19.7698 73.2673 21.4277C72.8199 23.0593 72.241 25.1908 71.5305 27.8223C72.1883 26.6118 72.8989 25.3487 73.662 24.0329C74.4251 22.7172 75.2278 21.4409 76.0698 20.204C76.9119 18.9409 77.754 17.8094 78.5961 16.8094C79.4645 15.8094 80.3066 15.0068 81.1224 14.4015C81.9381 13.7963 82.7276 13.4937 83.4907 13.4937C84.3065 13.4937 85.0302 13.7568 85.6618 14.2831C86.2933 14.7831 86.7802 15.4673 87.1223 16.3357C87.4907 17.1778 87.6749 18.1251 87.6749 19.1778C87.6749 21.3619 87.3064 23.4803 86.5696 25.5329C85.8328 27.5592 84.8065 29.3881 83.4907 31.0196C82.2013 32.6248 80.675 33.9012 78.9119 34.8485C77.1751 35.7959 75.2935 36.2695 73.2673 36.2695C72.5041 36.2695 71.8199 36.2301 71.2147 36.1511C70.6094 36.0722 70.0831 35.9801 69.6358 35.8748C69.32 37.6116 69.0173 39.401 68.7279 41.2431C68.4384 43.0852 68.1489 45.0457 67.8595 47.1246C67.7805 47.6772 67.649 48.0588 67.4648 48.2693C67.2805 48.5061 67.0042 48.6245 66.6358 48.6245ZM84.2013 16.4936C83.6486 16.4936 82.9908 16.8094 82.2276 17.4409C81.4908 18.0725 80.6882 18.9146 79.8198 19.9672C78.9777 20.9935 78.1224 22.1382 77.254 23.4014C76.3856 24.6382 75.5435 25.9013 74.7278 27.1907C73.912 28.4802 73.162 29.6775 72.4778 30.7828C71.8199 31.888 71.2805 32.8091 70.8594 33.5459C72.912 33.4933 74.7146 33.0854 76.2672 32.3222C77.8198 31.5328 79.1487 30.5328 80.254 29.3223C81.3592 28.0855 82.2539 26.7565 82.9381 25.3355C83.6486 23.8882 84.1618 22.4935 84.4776 21.1514C84.7934 19.783 84.9512 18.5988 84.9512 17.5988C84.9512 16.862 84.7012 16.4936 84.2013 16.4936Z" fill="#FB923C"/>
<path d="M93.399 38.6774C92.8201 38.6774 92.3727 38.5063 92.057 38.1642C91.7412 37.8484 91.5833 37.0458 91.5833 35.7564C91.5833 34.5722 91.7938 33.0327 92.2149 31.138C92.6359 29.217 93.2017 27.0855 93.9122 24.7434C94.6227 22.4014 95.4253 19.9804 96.32 17.4804C97.2148 14.9542 98.149 12.4805 99.1226 10.0595C100.123 7.61221 101.083 5.37541 102.004 3.34913C102.346 2.61231 102.701 2.09916 103.07 1.80969C103.438 1.52022 103.873 1.37549 104.373 1.37549C104.715 1.37549 105.004 1.48075 105.241 1.69127C105.504 1.87548 105.636 2.19126 105.636 2.63862C105.636 2.79651 105.465 3.30966 105.122 4.17806C104.807 5.04647 104.359 6.19118 103.78 7.61221C103.228 9.03323 102.609 10.6253 101.925 12.3884C101.241 14.1515 100.544 16.0068 99.8331 17.9541C99.1226 19.9014 98.4516 21.8619 97.82 23.8356C97.1885 25.7829 96.649 27.6513 96.2016 29.4407C95.7543 31.2301 95.4516 32.8354 95.2938 34.2564C95.9253 33.4933 96.649 32.5196 97.4648 31.3354C98.2805 30.1512 99.1489 28.8749 100.07 27.5065C100.991 26.1381 101.925 24.7829 102.873 23.4408C103.82 22.0987 104.754 20.8751 105.675 19.7698C106.596 18.6646 107.451 17.783 108.241 17.1252C109.057 16.441 109.767 16.0989 110.372 16.0989C111.372 16.0989 112.175 16.4147 112.78 17.0462C113.412 17.6515 113.728 18.6514 113.728 20.0462C113.728 20.8356 113.57 21.783 113.254 22.8882C112.964 23.9934 112.622 25.1513 112.228 26.3618C111.833 27.5723 111.478 28.7302 111.162 29.8354C110.872 30.9407 110.728 31.888 110.728 32.6775C110.728 33.7564 111.136 34.2959 111.951 34.2959C113.214 34.2959 114.478 34.0196 115.741 33.4669C117.03 32.9143 118.254 32.2301 119.412 31.4143C120.57 30.5723 121.635 29.7302 122.609 28.8881C123.583 28.0197 124.412 27.2829 125.096 26.6776C125.833 26.0197 126.451 25.6908 126.951 25.6908C127.583 25.6908 127.898 26.0197 127.898 26.6776C127.898 26.8618 127.859 27.0723 127.78 27.3092C127.701 27.546 127.49 27.8486 127.148 28.217C126.727 28.6907 126.122 29.3091 125.333 30.0723C124.569 30.8354 123.675 31.6512 122.648 32.5196C121.648 33.388 120.556 34.2038 119.372 34.9669C118.214 35.7301 117.017 36.3616 115.78 36.8616C114.57 37.3353 113.385 37.5721 112.228 37.5721C110.649 37.5721 109.425 37.1248 108.557 36.2301C107.715 35.309 107.294 34.0459 107.294 32.4406C107.294 31.4407 107.451 30.2302 107.767 28.8091C108.083 27.3881 108.478 25.8881 108.951 24.3092C109.451 22.704 109.951 21.1382 110.451 19.612C109.609 20.1909 108.688 21.0593 107.688 22.2172C106.715 23.3487 105.688 24.6382 104.609 26.0855C103.53 27.5065 102.451 28.9539 101.373 30.4275C100.32 31.9012 99.2937 33.2696 98.2937 34.5327C97.32 35.7695 96.4121 36.7695 95.5701 37.5327C94.728 38.2958 94.0043 38.6774 93.399 38.6774Z" fill="#FB923C"/>
<path d="M122.514 24.2698C121.803 24.2171 121.474 23.7566 121.527 22.8882C121.553 22.6777 121.698 22.4277 121.961 22.1382C122.224 21.8224 122.527 21.6514 122.869 21.6251C123.685 21.5461 124.685 21.4277 125.869 21.2698C127.079 21.0856 128.408 20.8751 129.856 20.6382C130.119 19.3488 130.435 17.9936 130.803 16.5725C131.171 15.1515 131.579 13.77 132.027 12.4279C132.474 11.0595 132.948 9.82269 133.448 8.71745C133.948 7.61221 134.474 6.7438 135.027 6.11224C135.316 5.82277 135.579 5.62541 135.816 5.52014C136.053 5.38857 136.263 5.32278 136.448 5.32278C136.816 5.32278 137.105 5.48067 137.316 5.79645C137.553 6.11224 137.671 6.46749 137.671 6.86222C137.671 7.07274 137.632 7.28327 137.553 7.49379C137.027 8.96744 136.461 10.7832 135.856 12.941C135.25 15.0989 134.606 17.4541 133.921 20.0067C136.342 19.612 138.763 19.1909 141.184 18.7436C143.605 18.2962 145.684 17.8883 147.421 17.5199C147.921 17.3094 148.303 17.3488 148.566 17.6383C148.855 17.9278 149 18.2172 149 18.5067C149 18.8751 148.895 19.1514 148.684 19.3356C148.5 19.5199 148.303 19.6777 148.092 19.8093L148.053 19.8488C147.526 20.0593 146.737 20.3093 145.684 20.5988C144.632 20.8619 143.421 21.1514 142.053 21.4672C140.684 21.7566 139.224 22.0461 137.671 22.3356C136.145 22.6251 134.632 22.8882 133.132 23.125C132.527 25.4408 131.908 27.8223 131.277 30.2696C130.671 32.6906 130.066 35.0722 129.461 37.4142C129.198 38.3616 128.895 38.9537 128.553 39.1905C128.237 39.4537 127.895 39.5852 127.527 39.5852C127.106 39.5852 126.737 39.4274 126.422 39.1116C126.132 38.7958 126.093 38.1511 126.303 37.1774L129.185 23.7171C127.606 23.954 126.211 24.125 125 24.2303C123.816 24.3355 122.987 24.3487 122.514 24.2698Z" fill="#FB923C"/>
<path d="M6.84199 40.6115C5.9999 40.6115 5.11834 40.401 4.1973 39.98C3.30259 39.5852 2.53944 38.9274 1.90788 38.0063C1.30263 37.059 1 35.809 1 34.2564C1 32.4406 1.15789 30.5196 1.47367 28.4934C1.78946 26.4671 2.19734 24.4408 2.69733 22.4145C3.22364 20.3619 3.80257 18.4146 4.43414 16.5725C5.06571 14.7305 5.69727 13.0858 6.32884 11.6384C6.98672 10.1911 7.59197 9.05954 8.14459 8.24377C8.69721 7.40168 9.15773 6.98064 9.52614 6.98064C10.0261 6.98064 10.4472 7.178 10.7893 7.57273C11.1577 7.96746 11.3419 8.52008 11.3419 9.23059C11.3419 9.52006 11.1708 10.2043 10.8287 11.2832C10.4866 12.3358 10.0524 13.6647 9.52614 15.2699C8.99984 16.8752 8.43406 18.612 7.82881 20.4804C7.24987 22.3487 6.69725 24.2303 6.17095 26.125C5.64464 28.0197 5.21044 29.8091 4.86834 31.4933C4.52624 33.1775 4.3552 34.6117 4.3552 35.7958C4.3552 36.1379 4.4473 36.4669 4.63151 36.7827C4.81571 37.0721 5.11834 37.2169 5.53938 37.2169C6.11832 37.2169 6.94725 37.0853 8.02617 36.8221C9.13141 36.559 10.3288 36.2432 11.6182 35.8748C12.9077 35.4801 14.1445 35.0985 15.3287 34.7301C16.5128 34.3617 17.5128 34.0459 18.3286 33.7827C19.1444 33.5196 19.6049 33.388 19.7101 33.388C20.0259 33.388 20.2891 33.4801 20.4996 33.6643C20.7101 33.8222 20.8154 34.0722 20.8154 34.4143C20.8154 34.8353 20.4996 35.3222 19.868 35.8748C19.2628 36.4274 18.447 36.98 17.4207 37.5326C16.4207 38.0853 15.3023 38.5853 14.0655 39.0326C12.8287 39.5063 11.5787 39.8879 10.3156 40.1773C9.07878 40.4668 7.92091 40.6115 6.84199 40.6115Z" stroke="#FB923C" stroke-width="2" mask="url(#path-1-outside-1_34_6841)"/>
<path d="M66.6358 48.6245C66.1885 48.6245 65.8332 48.4666 65.5701 48.1509C65.3332 47.8351 65.2148 47.2298 65.2148 46.3351C65.2148 45.0457 65.3069 43.5457 65.4911 41.8352C65.6753 40.1247 65.9253 38.309 66.2411 36.3879C66.5832 34.4669 66.9516 32.5459 67.3463 30.6249C67.7674 28.7039 68.2016 26.875 68.6489 25.1382C69.1226 23.4014 69.5831 21.8619 70.0305 20.5198C70.4778 19.1514 70.8857 18.0725 71.2541 17.2831C71.6489 16.4936 71.991 16.0989 72.2804 16.0989C72.7804 16.0989 73.1752 16.2436 73.4646 16.5331C73.7804 16.8225 73.9383 17.2567 73.9383 17.8357C73.9383 18.5725 73.7146 19.7698 73.2673 21.4277C72.8199 23.0593 72.241 25.1908 71.5305 27.8223C72.1883 26.6118 72.8989 25.3487 73.662 24.0329C74.4251 22.7172 75.2278 21.4409 76.0698 20.204C76.9119 18.9409 77.754 17.8094 78.5961 16.8094C79.4645 15.8094 80.3066 15.0068 81.1224 14.4015C81.9381 13.7963 82.7276 13.4937 83.4907 13.4937C84.3065 13.4937 85.0302 13.7568 85.6618 14.2831C86.2933 14.7831 86.7802 15.4673 87.1223 16.3357C87.4907 17.1778 87.6749 18.1251 87.6749 19.1778C87.6749 21.3619 87.3064 23.4803 86.5696 25.5329C85.8328 27.5592 84.8065 29.3881 83.4907 31.0196C82.2013 32.6248 80.675 33.9012 78.9119 34.8485C77.1751 35.7959 75.2935 36.2695 73.2673 36.2695C72.5041 36.2695 71.8199 36.2301 71.2147 36.1511C70.6094 36.0722 70.0831 35.9801 69.6358 35.8748C69.32 37.6116 69.0173 39.401 68.7279 41.2431C68.4384 43.0852 68.1489 45.0457 67.8595 47.1246C67.7805 47.6772 67.649 48.0588 67.4648 48.2693C67.2805 48.5061 67.0042 48.6245 66.6358 48.6245ZM84.2013 16.4936C83.6486 16.4936 82.9908 16.8094 82.2276 17.4409C81.4908 18.0725 80.6882 18.9146 79.8198 19.9672C78.9777 20.9935 78.1224 22.1382 77.254 23.4014C76.3856 24.6382 75.5435 25.9013 74.7278 27.1907C73.912 28.4802 73.162 29.6775 72.4778 30.7828C71.8199 31.888 71.2805 32.8091 70.8594 33.5459C72.912 33.4933 74.7146 33.0854 76.2672 32.3222C77.8198 31.5328 79.1487 30.5328 80.254 29.3223C81.3592 28.0855 82.2539 26.7565 82.9381 25.3355C83.6486 23.8882 84.1618 22.4935 84.4776 21.1514C84.7934 19.783 84.9512 18.5988 84.9512 17.5988C84.9512 16.862 84.7012 16.4936 84.2013 16.4936Z" stroke="#FB923C" stroke-width="2" mask="url(#path-1-outside-1_34_6841)"/>
<path d="M93.399 38.6774C92.8201 38.6774 92.3727 38.5063 92.057 38.1642C91.7412 37.8484 91.5833 37.0458 91.5833 35.7564C91.5833 34.5722 91.7938 33.0327 92.2149 31.138C92.6359 29.217 93.2017 27.0855 93.9122 24.7434C94.6227 22.4014 95.4253 19.9804 96.32 17.4804C97.2148 14.9542 98.149 12.4805 99.1226 10.0595C100.123 7.61221 101.083 5.37541 102.004 3.34913C102.346 2.61231 102.701 2.09916 103.07 1.80969C103.438 1.52022 103.873 1.37549 104.373 1.37549C104.715 1.37549 105.004 1.48075 105.241 1.69127C105.504 1.87548 105.636 2.19126 105.636 2.63862C105.636 2.79651 105.465 3.30966 105.122 4.17806C104.807 5.04647 104.359 6.19118 103.78 7.61221C103.228 9.03323 102.609 10.6253 101.925 12.3884C101.241 14.1515 100.544 16.0068 99.8331 17.9541C99.1226 19.9014 98.4516 21.8619 97.82 23.8356C97.1885 25.7829 96.649 27.6513 96.2016 29.4407C95.7543 31.2301 95.4516 32.8354 95.2938 34.2564C95.9253 33.4933 96.649 32.5196 97.4648 31.3354C98.2805 30.1512 99.1489 28.8749 100.07 27.5065C100.991 26.1381 101.925 24.7829 102.873 23.4408C103.82 22.0987 104.754 20.8751 105.675 19.7698C106.596 18.6646 107.451 17.783 108.241 17.1252C109.057 16.441 109.767 16.0989 110.372 16.0989C111.372 16.0989 112.175 16.4147 112.78 17.0462C113.412 17.6515 113.728 18.6514 113.728 20.0462C113.728 20.8356 113.57 21.783 113.254 22.8882C112.964 23.9934 112.622 25.1513 112.228 26.3618C111.833 27.5723 111.478 28.7302 111.162 29.8354C110.872 30.9407 110.728 31.888 110.728 32.6775C110.728 33.7564 111.136 34.2959 111.951 34.2959C113.214 34.2959 114.478 34.0196 115.741 33.4669C117.03 32.9143 118.254 32.2301 119.412 31.4143C120.57 30.5723 121.635 29.7302 122.609 28.8881C123.583 28.0197 124.412 27.2829 125.096 26.6776C125.833 26.0197 126.451 25.6908 126.951 25.6908C127.583 25.6908 127.898 26.0197 127.898 26.6776C127.898 26.8618 127.859 27.0723 127.78 27.3092C127.701 27.546 127.49 27.8486 127.148 28.217C126.727 28.6907 126.122 29.3091 125.333 30.0723C124.569 30.8354 123.675 31.6512 122.648 32.5196C121.648 33.388 120.556 34.2038 119.372 34.9669C118.214 35.7301 117.017 36.3616 115.78 36.8616C114.57 37.3353 113.385 37.5721 112.228 37.5721C110.649 37.5721 109.425 37.1248 108.557 36.2301C107.715 35.309 107.294 34.0459 107.294 32.4406C107.294 31.4407 107.451 30.2302 107.767 28.8091C108.083 27.3881 108.478 25.8881 108.951 24.3092C109.451 22.704 109.951 21.1382 110.451 19.612C109.609 20.1909 108.688 21.0593 107.688 22.2172C106.715 23.3487 105.688 24.6382 104.609 26.0855C103.53 27.5065 102.451 28.9539 101.373 30.4275C100.32 31.9012 99.2937 33.2696 98.2937 34.5327C97.32 35.7695 96.4121 36.7695 95.5701 37.5327C94.728 38.2958 94.0043 38.6774 93.399 38.6774Z" stroke="#FB923C" stroke-width="2" mask="url(#path-1-outside-1_34_6841)"/>
<path d="M122.514 24.2698C121.803 24.2171 121.474 23.7566 121.527 22.8882C121.553 22.6777 121.698 22.4277 121.961 22.1382C122.224 21.8224 122.527 21.6514 122.869 21.6251C123.685 21.5461 124.685 21.4277 125.869 21.2698C127.079 21.0856 128.408 20.8751 129.856 20.6382C130.119 19.3488 130.435 17.9936 130.803 16.5725C131.171 15.1515 131.579 13.77 132.027 12.4279C132.474 11.0595 132.948 9.82269 133.448 8.71745C133.948 7.61221 134.474 6.7438 135.027 6.11224C135.316 5.82277 135.579 5.62541 135.816 5.52014C136.053 5.38857 136.263 5.32278 136.448 5.32278C136.816 5.32278 137.105 5.48067 137.316 5.79645C137.553 6.11224 137.671 6.46749 137.671 6.86222C137.671 7.07274 137.632 7.28327 137.553 7.49379C137.027 8.96744 136.461 10.7832 135.856 12.941C135.25 15.0989 134.606 17.4541 133.921 20.0067C136.342 19.612 138.763 19.1909 141.184 18.7436C143.605 18.2962 145.684 17.8883 147.421 17.5199C147.921 17.3094 148.303 17.3488 148.566 17.6383C148.855 17.9278 149 18.2172 149 18.5067C149 18.8751 148.895 19.1514 148.684 19.3356C148.5 19.5199 148.303 19.6777 148.092 19.8093L148.053 19.8488C147.526 20.0593 146.737 20.3093 145.684 20.5988C144.632 20.8619 143.421 21.1514 142.053 21.4672C140.684 21.7566 139.224 22.0461 137.671 22.3356C136.145 22.6251 134.632 22.8882 133.132 23.125C132.527 25.4408 131.908 27.8223 131.277 30.2696C130.671 32.6906 130.066 35.0722 129.461 37.4142C129.198 38.3616 128.895 38.9537 128.553 39.1905C128.237 39.4537 127.895 39.5852 127.527 39.5852C127.106 39.5852 126.737 39.4274 126.422 39.1116C126.132 38.7958 126.093 38.1511 126.303 37.1774L129.185 23.7171C127.606 23.954 126.211 24.125 125 24.2303C123.816 24.3355 122.987 24.3487 122.514 24.2698Z" stroke="#FB923C" stroke-width="2" mask="url(#path-1-outside-1_34_6841)"/>
</g>
<g id="Group 26795">
<path id="Path 1621" d="M57.3156 25.9468V25.9485V39.6228C57.3039 39.8724 57.2438 40.1172 57.1387 40.3435C57.0323 40.5726 56.8818 40.778 56.6962 40.9479C56.5106 41.1177 56.2936 41.2486 56.0578 41.3332C55.822 41.4178 55.5719 41.4544 55.3221 41.441L55.3087 41.4403H55.2953H48.9981V35.2873L50.8388 34.0513L51.0601 33.9027V33.6362V26.7942V26.2942H50.5601H47.7345H47.2345V26.7942V27.9858H45.2555V26.7942V26.2942H44.7555H41.5483H41.0483V26.7942V27.9858H39.0697V26.7942V26.2942H38.5697H35.744H35.244V26.7942V33.637V33.9035L35.4652 34.0521L37.306 35.2881V41.4404H30.9324H30.9195L30.9066 41.4411C30.6568 41.454 30.4068 41.417 30.1711 41.3321C29.9354 41.2473 29.7185 41.1163 29.5329 40.9465L29.1953 41.3153L29.5329 40.9465C29.3473 40.7766 29.1968 40.5713 29.0901 40.3423C28.9848 40.1163 28.9244 39.8718 28.9121 39.6224V25.9533C28.9171 25.7172 28.9718 25.4849 29.0726 25.2719C29.1739 25.0576 29.3195 24.8678 29.4994 24.7152L29.5081 24.7078L29.5165 24.7L41.6543 13.4031C42.0704 13.0397 42.6022 12.84 43.1521 12.84C43.702 12.84 44.2339 13.0397 44.6499 13.4031L56.7854 24.6979C56.953 24.858 57.0866 25.0511 57.1779 25.2654C57.2694 25.4806 57.3164 25.7125 57.3156 25.9468Z" fill="#FB923C" stroke="#FB923C"/>
</g>
</g>
</svg>
